<svg width="51" height="42" viewBox="0 0 51 42" fill="none" xmlns="http://www.w3.org/2000/svg">
<g clip-path="url(#clip0_1250_1044)">
<path d="M50.04 16.73C49 19.19 47.2 20.59 44.63 20.91C44.25 20.96 43.86 20.99 43.48 20.99C41.07 20.99 39.08 20.09 37.49 18.28C35.85 20.08 33.83 20.99 31.42 20.99C29.01 20.99 26.99 20.09 25.35 18.28C23.71 20.08 21.69 20.99 19.28 20.99C16.87 20.99 14.85 20.09 13.21 18.28C11.62 20.08 9.6 20.99 7.14 20.99C6.81 20.99 6.46 20.96 6.07 20.91C3.5 20.58 1.69 19.19 0.660001 16.73C-0.369999 14.27 -0.189999 11.94 1.23 9.76L6.56 1.23C7.05 0.41 7.79 0 8.77 0H41.92C42.9 0 43.64 0.41 44.13 1.23L49.46 9.76C50.88 11.95 51.07 14.27 50.03 16.73H50.04ZM45.04 23.54C45.42 23.49 45.86 23.38 46.35 23.21V39.37C46.35 40.08 46.09 40.7 45.57 41.22C45.05 41.74 44.44 42 43.72 42H6.97C6.48 42 6.04 41.88 5.66 41.63C5.28 41.38 4.96 41.07 4.72 40.69C4.48 40.31 4.35 39.87 4.35 39.38V23.21C4.84 23.37 5.28 23.48 5.66 23.54C6.15 23.59 6.64 23.62 7.14 23.62C7.85 23.62 8.67 23.51 9.6 23.29V31.49H41.1V23.29C41.98 23.51 42.8 23.62 43.56 23.62C44.05 23.62 44.54 23.59 45.04 23.54Z" fill="#2670E8"/>
</g>
<defs>
<clipPath id="clip0_1250_1044">
<rect width="50.7" height="42" fill="white"/>
</clipPath>
</defs>
</svg>
