<svg width="55" height="16" viewBox="0 0 55 16" fill="none" xmlns="http://www.w3.org/2000/svg">
<g clip-path="url(#clip0_1250_1102)">
<path d="M13.62 9.43001L12.66 11.32C12.55 11.5 12.41 11.7 12.24 11.91C12.07 12.12 11.88 12.31 11.67 12.48C11.46 12.65 11.26 12.79 11.08 12.88L9.19 13.86C8.48 14.21 7.74 14.32 6.98 14.19L4.87 13.86C4.56 13.81 4.21 13.68 3.82 13.49C3.43 13.3 3.12 13.08 2.9 12.85L1.4 11.35C1.16 11.13 0.94 10.83 0.74 10.43C0.54 10.03 0.42 9.68001 0.38 9.35001L0.05 7.27C0.01 7.09 0 6.9 0 6.7C0 6.13 0.13 5.59 0.38 5.06L1.36 3.17C1.51 2.9 1.73 2.6 2.03 2.29C2.33 1.98 2.63 1.75 2.92 1.61L4.81 0.630005C5.5 0.280005 6.23 0.170005 7 0.300005C7.02 1.25 7.36 2.06 8.04 2.73C8.72 3.4 9.54 3.74 10.5 3.74C10.5 4.71 10.84 5.53 11.51 6.2C12.18 6.87 13.01 7.22 13.97 7.24C14.08 8.01 13.97 8.74001 13.61 9.43001H13.62ZM5.43 10.05C5.6 9.88 5.69 9.67001 5.69 9.43001C5.69 9.19001 5.6 8.99001 5.43 8.81001C5.26 8.63001 5.05 8.55 4.81 8.55C4.57 8.55 4.37 8.64001 4.19 8.81001C4.01 8.98001 3.93 9.19001 3.93 9.43001C3.93 9.67001 4.02 9.87 4.19 10.05C4.36 10.23 4.57 10.31 4.81 10.31C5.05 10.31 5.25 10.22 5.43 10.05ZM6.31 5.67C6.48 5.5 6.57 5.29 6.57 5.05C6.57 4.81 6.48 4.61 6.31 4.43C6.14 4.25 5.93 4.17 5.69 4.17C5.45 4.17 5.25 4.26 5.07 4.43C4.89 4.6 4.81 4.81 4.81 5.05C4.81 5.29 4.9 5.49 5.07 5.67C5.24 5.85 5.45 5.93 5.69 5.93C5.93 5.93 6.13 5.84 6.31 5.67ZM10.69 9.17C10.86 9 10.95 8.79 10.95 8.55C10.95 8.31 10.86 8.11 10.69 7.93C10.52 7.75 10.31 7.67 10.07 7.67C9.83 7.67 9.63 7.76 9.45 7.93C9.27 8.1 9.19 8.31 9.19 8.55C9.19 8.79 9.28 8.99 9.45 9.17C9.62 9.35 9.83 9.43001 10.07 9.43001C10.31 9.43001 10.51 9.34 10.69 9.17Z" fill="#1351B4"/>
</g>
<g clip-path="url(#clip1_1250_1102)">
<path d="M41.27 2.52C42.78 1 44.6 0.25 46.75 0.25C48.9 0.25 50.72 1 52.23 2.52C53.74 4.04 54.5 5.86 54.5 8C54.5 10.14 53.75 11.97 52.23 13.48C50.71 14.99 48.89 15.75 46.75 15.75C44.61 15.75 42.78 15 41.27 13.48C39.76 11.96 39 10.15 39 8C39 5.85 39.75 4.03 41.27 2.52ZM50.81 12.06C51.93 10.94 52.5 9.58 52.5 8C52.5 6.42 51.94 5.06 50.81 3.94C49.68 2.82 48.33 2.25 46.75 2.25V13.75C48.33 13.75 49.69 13.19 50.81 12.06Z" fill="#1351B4"/>
</g>
<defs>
<clipPath id="clip0_1250_1102">
<rect width="14.01" height="13.99" fill="white" transform="translate(0 0.25)"/>
</clipPath>
<clipPath id="clip1_1250_1102">
<rect width="15.5" height="15.5" fill="white" transform="translate(39 0.25)"/>
</clipPath>
</defs>
</svg>
