<svg width="48" height="48" viewBox="0 0 48 48" fill="none" xmlns="http://www.w3.org/2000/svg">
<mask id="mask0_1192_4188" style="mask-type:alpha" maskUnits="userSpaceOnUse" x="-1" y="0" width="49" height="48">
<rect x="-0.5" width="48" height="48" fill="#D9D9D9"/>
</mask>
<g mask="url(#mask0_1192_4188)">
<path d="M11.6435 44.4065C10.3841 44.4065 9.31086 43.963 8.42389 43.0761C7.53693 42.1891 7.09344 41.1159 7.09344 39.8565V8.14349C7.09344 6.88406 7.53693 5.81086 8.42389 4.9239C9.31086 4.03693 10.3841 3.59344 11.6435 3.59344H27.6674L39.9065 15.8326V39.8565C39.9065 41.1159 39.4631 42.1891 38.5761 43.0761C37.6891 43.963 36.6159 44.4065 35.3565 44.4065H11.6435ZM21.4043 38.0239H25.5956V36.0239H27.5C28.0938 36.0239 28.5915 35.8242 28.9931 35.4248C29.3948 35.0255 29.5956 34.5306 29.5956 33.9402V27.8445C29.5956 27.2508 29.3948 26.7531 28.9931 26.3514C28.5915 25.9497 28.0938 25.7489 27.5 25.7489H21.5956V23.8445H29.5956V19.6652H25.5956V17.6652H21.4043V19.6652H19.5C18.9062 19.6652 18.4085 19.8649 18.0068 20.2642C17.6052 20.6636 17.4043 21.1585 17.4043 21.7489V27.8445C17.4043 28.4383 17.6052 28.936 18.0068 29.3377C18.4085 29.7394 18.9062 29.9402 19.5 29.9402H25.4043V31.8445H17.4043V36.0239H21.4043V38.0239ZM25.9098 15.8326H33.9935L25.9098 7.76084V15.8326Z" fill="#0C326F"/>
</g>
</svg>
