<svg width="49" height="48" viewBox="0 0 49 48" fill="none" xmlns="http://www.w3.org/2000/svg">
<mask id="mask0_1192_4341" style="mask-type:alpha" maskUnits="userSpaceOnUse" x="0" y="0" width="48" height="48">
<rect width="48" height="48" fill="#D9D9D9"/>
</mask>
<g mask="url(#mask0_1192_4341)">
<path d="M18 42.4065C14.5537 42.4065 11.6244 41.2003 9.21204 38.7879C6.79964 36.3756 5.59344 33.4463 5.59344 30V18C5.59344 14.5537 6.79964 11.6244 9.21204 9.21205C11.6244 6.79965 14.5537 5.59344 18 5.59344H30C33.4463 5.59344 36.3756 6.79965 38.7879 9.21205C41.2003 11.6244 42.4065 14.5537 42.4065 18V30C42.4065 33.4463 41.2003 36.3756 38.7879 38.7879C36.3756 41.2003 33.4463 42.4065 30 42.4065H18ZM21.9641 32.1315L34.0956 20L31.1641 17.0685L21.9641 26.2685L17.5641 21.8685L14.6326 24.8L21.9641 32.1315Z" fill="#0C326F"/>
</g>
</svg>
