<svg width="48" height="48" viewBox="0 0 48 48" fill="none" xmlns="http://www.w3.org/2000/svg">
<mask id="mask0_1192_4351" style="mask-type:alpha" maskUnits="userSpaceOnUse" x="-1" y="0" width="49" height="48">
<rect x="-0.5" width="48" height="48" fill="#D9D9D9"/>
</mask>
<g mask="url(#mask0_1192_4351)">
<path d="M29.9206 33.4717L32.9956 30.4206L25.6793 23.1043V14.0598H21.3206V24.8664L29.9206 33.4717ZM23.5 44.4065C20.6696 44.4065 18.0138 43.8712 15.5327 42.8006C13.0517 41.73 10.8935 40.2771 9.05819 38.4418C7.22289 36.6065 5.76994 34.4483 4.69934 31.9672C3.62874 29.4862 3.09344 26.8304 3.09344 24C3.09344 21.1696 3.62874 18.5138 4.69934 16.0327C5.76994 13.5517 7.22289 11.3935 9.05819 9.55819C10.8935 7.72289 13.0517 6.26994 15.5327 5.19934C18.0138 4.12874 20.6696 3.59344 23.5 3.59344C26.3304 3.59344 28.9862 4.12874 31.4672 5.19934C33.9483 6.26994 36.1065 7.72289 37.9418 9.55819C39.7771 11.3935 41.23 13.5517 42.3006 16.0327C43.3712 18.5138 43.9065 21.1696 43.9065 24C43.9065 26.8304 43.3712 29.4862 42.3006 31.9672C41.23 34.4483 39.7771 36.6065 37.9418 38.4418C36.1065 40.2771 33.9483 41.73 31.4672 42.8006C28.9862 43.8712 26.3304 44.4065 23.5 44.4065Z" fill="#0C326F"/>
</g>
</svg>
