<svg width="49" height="48" viewBox="0 0 49 48" fill="none" xmlns="http://www.w3.org/2000/svg">
<mask id="mask0_1192_4361" style="mask-type:alpha" maskUnits="userSpaceOnUse" x="0" y="0" width="49" height="48">
<rect x="0.5" width="48" height="48" fill="#D9D9D9"/>
</mask>
<g mask="url(#mask0_1192_4361)">
<path d="M21.4001 31C22.2334 31.8333 23.2794 32.225 24.5381 32.175C25.7968 32.125 26.7175 31.6667 27.3001 30.8L38.811 13.6891L21.7001 25.2C20.8334 25.8159 20.3604 26.7302 20.2811 27.9429C20.2017 29.1556 20.5747 30.1746 21.4001 31ZM10.7001 40.4065C9.90296 40.4065 9.16021 40.2303 8.47181 39.8777C7.78337 39.5252 7.24387 39.0003 6.85331 38.3032C5.96274 36.7047 5.28014 35.0458 4.80551 33.3266C4.33084 31.6074 4.09351 29.8319 4.09351 28C4.09351 25.1775 4.62847 22.5257 5.69841 20.0445C6.76834 17.5634 8.22324 15.4029 10.0631 13.563C11.9029 11.7232 14.0634 10.2683 16.5446 9.19834C19.0258 8.12841 21.6776 7.59344 24.5001 7.59344C27.2892 7.59344 29.9117 8.12008 32.3675 9.17334C34.8233 10.2266 36.9711 11.6628 38.811 13.482C40.6508 15.3012 42.114 17.4284 43.2006 19.8636C44.2872 22.2987 44.8432 24.9109 44.8686 27.7C44.8939 29.5732 44.6776 31.4027 44.2196 33.1886C43.7616 34.9745 43.058 36.6793 42.1088 38.3032C41.7022 38.9924 41.1607 39.5152 40.4843 39.8717C39.8078 40.2283 39.0671 40.4065 38.262 40.4065H10.7001Z" fill="#0C326F"/>
</g>
</svg>
