<svg width="111" height="40" viewBox="0 0 111 40" fill="none" xmlns="http://www.w3.org/2000/svg">
<path d="M11.8929 25.1027C14.5376 25.1027 16.6452 22.8715 16.6452 19.5686C16.8496 16.9756 14.915 14.7085 12.3221 14.5018C12.1805 14.4905 12.0367 14.486 11.8929 14.4883C9.12923 14.4883 7.68221 16.9262 7.68221 19.8584C7.67997 23.2041 9.66175 25.1027 11.8929 25.1027ZM23.8286 28.2821C23.8286 37.1192 19.537 39.9683 10.8616 39.9683C8.06644 39.9751 5.287 39.5167 2.64238 38.6067L3.01312 32.74C5.24431 33.9466 7.74737 34.5578 10.2841 34.5173C14.5803 34.5173 16.8923 32.4951 16.8923 28.2821V27.1227H16.8092C15.1914 29.5089 12.4614 30.8975 9.58086 30.7987C3.67371 30.7987 0 26.3408 0 19.9753C0 13.5715 3.01312 8.78336 9.70444 8.78336C12.7558 8.80807 15.5532 10.4843 17.0137 13.1626H17.099V9.28442H23.8286V28.2799V28.2821Z" fill="#2864AE"/>
<path d="M53.8002 30.7739H62.0711L69.8477 9.39001H62.6238L58.2378 24.6241H58.157L53.8047 9.39001H46.0079L53.8002 30.7739Z" fill="#48AD45"/>
<path d="M41.177 20.0875C41.177 16.8879 39.7817 14.0568 36.3754 14.0568C32.9691 14.0568 31.576 16.8879 31.576 20.0875C31.576 23.2467 32.9713 26.0778 36.3754 26.0778C39.7795 26.0778 41.177 23.2467 41.177 20.0875ZM23.9454 20.0875C23.9454 12.9895 29.3178 8.89114 36.3754 8.89114C43.433 8.89114 48.8053 12.994 48.8053 20.0875C48.8053 27.1451 43.433 31.2457 36.3754 31.2457C29.3178 31.2457 23.9454 27.1451 23.9454 20.0875Z" fill="#FABD14"/>
<path d="M70.6835 27.7517C70.6835 29.6886 69.1129 31.2569 67.176 31.2569C65.2392 31.2569 63.6708 29.6863 63.6708 27.7495C63.6708 25.8149 65.2392 24.2465 67.176 24.2443C69.1106 24.242 70.6812 25.8104 70.6835 27.745C70.6835 27.7472 70.6835 27.7495 70.6835 27.7517Z" fill="#2864AE"/>
<path d="M83.2528 14.569C80.5453 14.569 78.7388 16.9463 78.7388 20.1481C78.7388 23.2668 80.7925 25.6081 83.2528 25.6081C86.0435 25.6081 87.7264 23.2668 87.7264 19.8605C87.7264 17.0316 86.1266 14.569 83.2528 14.569ZM71.3532 0H78.7837V12.1491H78.8668C80.6442 9.93812 83.3832 8.72928 86.2143 8.90903C92.1237 8.90903 95.3615 14.5286 95.3615 19.701C95.3615 26.0193 91.9574 31.2749 85.5941 31.2749C82.5158 31.3939 79.6465 29.711 78.2489 26.9653H78.1658V30.785H71.3487V0.00224692H71.3532V0Z" fill="#2864AE"/>
<path d="M110.625 15.3083C109.807 15.1038 108.964 15.0206 108.122 15.0633C104.675 15.0633 102.749 17.5664 102.749 21.7524V30.7828H95.3592V9.38987H102.095V13.331H102.179C103.111 10.6459 105.657 8.86185 108.497 8.90005C109.337 8.91353 110.173 8.99666 111 9.14496L110.625 15.3083Z" fill="#FABD14"/>
</svg>
