<svg width="21" height="19" viewBox="0 0 21 19" fill="none" xmlns="http://www.w3.org/2000/svg">
<g clip-path="url(#clip0_1250_1068)">
<path d="M0.21 3.16C0.07 3.02 0 2.84 0 2.62V0.75C0 0.53 0.07 0.35 0.21 0.21C0.35 0.07 0.53 0 0.75 0H20.25C20.47 0 20.65 0.07 20.79 0.21C20.93 0.35 21 0.53 21 0.75V2.63C21 2.85 20.93 3.03 20.79 3.17C20.65 3.31 20.47 3.38 20.25 3.38H0.75C0.53 3.38 0.35 3.31 0.21 3.17V3.16ZM0.21 10.66C0.07 10.52 0 10.34 0 10.12V8.24C0 8.02 0.07 7.84 0.21 7.7C0.35 7.56 0.53 7.49 0.75 7.49H20.25C20.47 7.49 20.65 7.56 20.79 7.7C20.93 7.84 21 8.02 21 8.24V10.12C21 10.34 20.93 10.52 20.79 10.66C20.65 10.8 20.47 10.87 20.25 10.87H0.75C0.53 10.87 0.35 10.8 0.21 10.66V10.66ZM0.21 18.16C0.07 18.02 0 17.84 0 17.62V15.74C0 15.52 0.07 15.34 0.21 15.2C0.35 15.06 0.53 14.99 0.75 14.99H20.25C20.47 14.99 20.65 15.06 20.79 15.2C20.93 15.34 21 15.52 21 15.74V17.62C21 17.84 20.93 18.02 20.79 18.16C20.65 18.3 20.47 18.37 20.25 18.37H0.75C0.53 18.37 0.35 18.3 0.21 18.16V18.16Z" fill="#1351B4"/>
</g>
<defs>
<clipPath id="clip0_1250_1068">
<rect width="21" height="18.38" fill="white"/>
</clipPath>
</defs>
</svg>
