<svg width="20" height="20" viewBox="0 0 20 20" fill="none" xmlns="http://www.w3.org/2000/svg">
<g clip-path="url(#clip0_1250_1062)">
<path d="M20 17.97C20 18.23 19.91 18.45 19.73 18.63L18.64 19.72C18.46 19.9 18.24 19.99 17.98 19.99C17.72 19.99 17.5 19.9 17.32 19.72L13.41 15.81C13.23 15.63 13.14 15.41 13.14 15.15V14.53C11.68 15.68 10.02 16.25 8.14 16.25C5.9 16.25 3.99 15.46 2.4 13.87C0.81 12.28 0 10.36 0 8.12C0 5.88 0.79 3.97 2.38 2.38C3.97 0.79 5.89 0 8.12 0C10.35 0 12.27 0.79 13.86 2.38C15.45 3.97 16.24 5.88 16.24 8.12C16.24 10 15.67 11.66 14.52 13.12H15.14C15.4 13.12 15.62 13.21 15.8 13.39L19.71 17.3C19.89 17.48 19.98 17.7 19.98 17.96L20 17.97ZM11.66 11.66C12.64 10.68 13.12 9.5 13.12 8.12C13.12 6.74 12.63 5.56 11.66 4.58C10.69 3.6 9.5 3.12 8.12 3.12C6.74 3.12 5.56 3.61 4.58 4.58C3.6 5.55 3.12 6.74 3.12 8.12C3.12 9.5 3.61 10.68 4.58 11.66C5.55 12.64 6.74 13.12 8.12 13.12C9.5 13.12 10.68 12.63 11.66 11.66Z" fill="#1351B4"/>
</g>
<defs>
<clipPath id="clip0_1250_1062">
<rect width="20" height="20" fill="white"/>
</clipPath>
</defs>
</svg>
