<svg width="13" height="10" viewBox="0 0 13 10" fill="none" xmlns="http://www.w3.org/2000/svg">
<g clip-path="url(#clip0_1250_1115)">
<path d="M0.77 3.43501C0.59 3.25501 0.5 3.03501 0.5 2.77501C0.5 2.51501 0.59 2.29501 0.77 2.11501L1.67 1.24501C1.85 1.06501 2.07 0.975006 2.33 0.975006C2.59 0.975006 2.81 1.06501 2.99 1.24501L6.74 4.99501L10.5 1.24501C10.68 1.06501 10.9 0.975006 11.16 0.975006C11.42 0.975006 11.64 1.06501 11.82 1.24501L12.72 2.10501C12.9 2.28501 12.99 2.50501 12.99 2.76501C12.99 3.02501 12.9 3.24501 12.72 3.42501L7.41 8.74501C7.23 8.92501 7.01 9.01501 6.75 9.01501C6.49 9.01501 6.27 8.92501 6.09 8.74501L0.77 3.43501Z" fill="#1351B4"/>
</g>
<defs>
<clipPath id="clip0_1250_1115">
<rect width="12.5" height="8.05" fill="white" transform="translate(0.5 0.975006)"/>
</clipPath>
</defs>
</svg>
